:SAMPLES-PER-SECOND 30
:FULLY-SPECIFIED
:DEGREES
424
root  -15.3203 34.7753 -8.10722 -170.55 -0.173096 179.777
RightUpLeg  -9.39518 -10.1325 1.84871
RightLeg  5.69397 2.1123 0.0752222
RightFoot  4.24635 0.0031728 0.279524
RightToes  -23.6236 -0.10987 -0.214334
Spine  -1.94922 0.335307 -0.379419
Spine1  -3.97124 0.762689 -0.108646
HEad  -66.796 0.832547 5.78957
LeftShoulder1  -1.94126e-019 -3.10601e-018 -2.51263e-017
LeftArm  -8.95084 24.644 -81.7427
LeftForeArm  31.0865 -18.2788 -2.9839
LeftHand  -0.488197 -2.64372 7.30993
RightShoulder  -4.96962e-017 0 -2.36833e-017
RightArm  -19.7498 -22.5954 79.5435
RightForeArm  53.8817 15.4002 1.12973
RightHand  -0.498858 -0.445472 -11.9899
LeftUpLeg  -9.24896 -6.049 -0.802194
LeftLeg  6.3452 13.1699 0.606368
LeftFoot  3.65637 -0.0316939 1.00892
LeftToes  -14.9935 1.31424e-006 1.14295e-007
425
root  -15.3241 34.7757 -8.1047 -170.533 -0.240814 179.775
RightUpLeg  -9.40699 -10.2051 1.85177
RightLeg  5.68473 2.12085 0.0751796
RightFoot  4.25848 0.00320255 0.279099
RightToes  -23.6689 -0.10987 -0.214334
Spine  -1.94647 0.338642 -0.38641
Spine1  -3.95793 0.789347 -0.122187
HEad  -66.7656 0.835412 5.7771
LeftShoulder1  -1.94126e-019 -3.10601e-018 -2.51263e-017
LeftArm  -8.95722 24.5836 -81.6831
LeftForeArm  31.1314 -18.171 -2.96966
LeftHand  -0.490351 -2.70608 7.31644
RightShoulder  -4.96962e-017 0 -2.36833e-017
RightArm  -19.6788 -22.5683 79.5309
RightForeArm  53.8428 15.4601 1.12565
RightHand  -0.501124 -0.461168 -11.9126
LeftUpLeg  -9.2476 -6.13832 -0.797198
LeftLeg  6.28551 13.1888 0.593583
LeftFoot  3.69018 -0.0322935 1.01824
LeftToes  -15.0731 1.31424e-006 1.14295e-007
426
root  -15.3307 34.7757 -8.10109 -170.493 -0.328445 179.774
RightUpLeg  -9.46026 -10.3163 1.85269
RightLeg  5.71495 2.14255 0.0770724
RightFoot  4.21118 0.00322091 0.278837
RightToes  -23.6347 -0.10987 -0.214334
Spine  -1.94495 0.343349 -0.389953
Spine1  -3.95692 0.775609 -0.129933
HEad  -66.72 0.838935 5.79196
LeftShoulder1  -1.94126e-019 -3.10601e-018 -2.51263e-017
LeftArm  -9.01489 24.5473 -81.6406
LeftForeArm  31.1511 -18.1218 -2.96361
LeftHand  -0.491922 -2.65815 7.31721
RightShoulder  -4.96962e-017 0 -2.36833e-017
RightArm  -19.5631 -22.5296 79.4929
RightForeArm  53.7719 15.4781 1.1259
RightHand  -0.498589 -0.493496 -11.9746
LeftUpLeg  -9.28829 -6.21512 -0.798842
LeftLeg  6.25906 13.1769 0.587019
LeftFoot  3.68278 -0.032128 1.01566
LeftToes  -15.0105 1.31424e-006 1.14295e-007
427
root  -15.3341 34.7751 -8.0986 -170.449 -0.372772 179.772
RightUpLeg  -9.49148 -10.293 1.85511
RightLeg  5.69155 2.0884 0.0742941
RightFoot  4.22586 0.0032313 0.278688
RightToes  -23.7112 -0.10987 -0.214334
Spine  -1.94432 0.347082 -0.391253
Spine1  -3.95971 0.779944 -0.140332
HEad  -66.6892 0.788593 5.77838
LeftShoulder1  -1.94126e-019 -3.10601e-018 -2.51263e-017
LeftArm  -9.04278 24.5213 -81.6
LeftForeArm  31.1729 -18.0457 -2.95146
LeftHand  -0.496583 -2.69001 7.39403
RightShoulder  -4.96962e-017 0 -2.36833e-017
RightArm  -19.5174 -22.5188 79.4737
RightForeArm  53.7374 15.4995 1.12505
RightHand  -0.499581 -0.528685 -11.9418
LeftUpLeg  -9.33909 -6.14559 -0.8008
LeftLeg  6.256 13.0661 0.581468
LeftFoot  3.67557 -0.0315363 1.00647
LeftToes  -15.0874 1.31424e-006 1.14295e-007
428
root  -15.3331 34.7732 -8.09861 -170.409 -0.40358 179.761
RightUpLeg  -9.41222 -10.4655 1.85352
RightLeg  5.45069 2.25648 0.0706803
RightFoot  4.30777 0.00323716 0.278605
RightToes  -23.6934 -0.10987 -0.214334
Spine  -1.9442 0.347492 -0.391931
Spine1  -3.98244 0.787113 -0.149715
HEad  -66.7292 0.7674 5.86347
LeftShoulder1  -1.94126e-019 -3.10601e-018 -2.51263e-017
LeftArm  -9.02159 24.5199 -81.576
LeftForeArm  31.1743 -18.0277 -2.94983
LeftHand  -0.501527 -2.7185 7.40434
RightShoulder  -4.96962e-017 0 -2.36833e-017
RightArm  -19.5435 -22.5409 79.4653
RightForeArm  53.7357 15.4833 1.12637
RightHand  -0.499119 -0.547416 -11.9565
LeftUpLeg  -9.35235 -6.06954 -0.807227
LeftLeg  6.19254 12.956 0.562398
LeftFoot  3.67385 -0.0311309 1.00017
LeftToes  -15.1049 1.31424e-006 1.14295e-007
429
root  -15.3388 34.7705 -8.0997 -170.384 -0.445221 179.761
RightUpLeg  -9.42974 -10.3885 1.84597
RightLeg  5.4457 2.14682 0.0671056
RightFoot  4.35935 0.00324191 0.278537
RightToes  -23.9515 -0.10987 -0.214334
Spine  -1.94423 0.340375 -0.392043
Spine1  -3.96825 0.77305 -0.150783
HEad  -66.8119 0.666031 5.93615
LeftShoulder1  -1.94126e-019 -3.10601e-018 -2.51263e-017
LeftArm  -9.08365 24.5179 -81.5739
LeftForeArm  31.1395 -18.0277 -2.94875
LeftHand  -0.497115 -2.67965 7.37387
RightShoulder  -4.96962e-017 0 -2.36833e-017
RightArm  -19.6076 -22.5387 79.4285
RightForeArm  53.786 15.4273 1.12973
RightHand  -0.49859 -0.521447 -11.9821
LeftUpLeg  -9.37418 -6.05951 -0.813858
LeftLeg  6.17722 12.9067 0.556868
LeftFoot  3.67474 -0.0308111 0.995195
LeftToes  -15.1335 1.31424e-006 1.14295e-007
430
root  -15.3421 34.769 -8.10087 -170.357 -0.47348 179.76
RightUpLeg  -9.42513 -10.277 1.83115
RightLeg  5.39991 2.02009 0.061583
RightFoot  4.38228 0.00324897 0.278436
RightToes  -24.0704 -0.10987 -0.214334
Spine  -1.94403 0.329907 -0.391646
Spine1  -3.96135 0.751686 -0.151242
HEad  -66.8714 0.621556 5.95435
LeftShoulder1  -1.94126e-019 -3.10601e-018 -2.51263e-017
LeftArm  -9.09749 24.5172 -81.5817
LeftForeArm  31.094 -18.0439 -2.95139
LeftHand  -0.495141 -2.65814 7.36364
RightShoulder  -4.96962e-017 0 -2.36833e-017
RightArm  -19.6913 -22.5445 79.4178
RightForeArm  53.84 15.3836 1.13217
RightHand  -0.498342 -0.521182 -11.9995
LeftUpLeg  -9.40257 -6.14031 -0.815285
LeftLeg  6.18305 12.9481 0.559936
LeftFoot  3.67797 -0.0310283 0.99857
LeftToes  -15.1887 1.31424e-006 1.14295e-007
431
root  -15.344 34.7673 -8.10187 -170.352 -0.466675 179.759
RightUpLeg  -9.44131 -10.2944 1.83021
RightLeg  5.4272 2.02941 0.0628323
RightFoot  4.31405 0.00324759 0.278456
RightToes  -23.845 -0.10987 -0.214334
Spine  -1.94322 0.328169 -0.390797
Spine1  -3.95688 0.748005 -0.147861
HEad  -66.9124 0.601378 5.97633
LeftShoulder1  -1.94126e-019 -3.10601e-018 -2.51263e-017
LeftArm  -9.11167 24.5308 -81.6027
LeftForeArm  31.0505 -18.0815 -2.95579
LeftHand  -0.486286 -2.60386 7.28132
RightShoulder  -4.96962e-017 0 -2.36833e-017
RightArm  -19.7156 -22.5726 79.4019
RightForeArm  53.8543 15.3523 1.13456
RightHand  -0.498575 -0.49294 -12.0088
LeftUpLeg  -9.42118 -6.12482 -0.816439
LeftLeg  6.2157 12.9418 0.566987
LeftFoot  3.65896 -0.0307093 0.993612
LeftToes  -15.1826 1.31424e-006 1.14295e-007
432
root  -15.3473 34.7637 -8.10762 -170.334 -0.453171 179.757
RightUpLeg  -9.46985 -10.33 1.82704
RightLeg  5.46154 2.07612 0.0655036
RightFoot  4.30453 0.00322882 0.278724
RightToes  -23.9057 -0.10987 -0.214334
Spine  -1.94404 0.320383 -0.389551
Spine1  -3.96218 0.732143 -0.137467
HEad  -67.0069 0.578458 6.01081
LeftShoulder1  -1.94126e-019 -3.10601e-018 -2.51263e-017
LeftArm  -9.14092 24.5446 -81.6539
LeftForeArm  31.0335 -18.0752 -2.95371
LeftHand  -0.479567 -2.52888 7.24652
RightShoulder  -4.96962e-017 0 -2.36833e-017
RightArm  -19.8294 -22.6214 79.3846
RightForeArm  53.9318 15.2749 1.13984
RightHand  -0.498787 -0.509566 -12.0143
LeftUpLeg  -9.46036 -6.10865 -0.826158
LeftLeg  6.28303 12.9438 0.582175
LeftFoot  3.6076 -0.0299397 0.98165
LeftToes  -15.1389 1.31424e-006 1.14295e-007
433
root  -15.35 34.7607 -8.11288 -170.317 -0.432419 179.755
RightUpLeg  -9.48857 -10.3425 1.82514
RightLeg  5.47272 2.10226 0.0667276
RightFoot  4.31009 0.00319884 0.279152
RightToes  -23.9509 -0.10987 -0.214334
Spine  -1.94966 0.312263 -0.387966
Spine1  -3.97382 0.715373 -0.13095
HEad  -67.0165 0.533361 6.04035
LeftShoulder1  -1.94126e-019 -3.10601e-018 -2.51263e-017
LeftArm  -9.22123 24.5428 -81.7111
LeftForeArm  31.0894 -18.0052 -2.94307
LeftHand  -0.491377 -2.61974 7.34174
RightShoulder  -4.96962e-017 0 -2.36833e-017
RightArm  -19.9328 -22.6749 79.3808
RightForeArm  54.0066 15.2093 1.14443
RightHand  -0.497018 -0.551341 -12.0727
LeftUpLeg  -9.49034 -6.09929 -0.831689
LeftLeg  6.3363 12.9505 0.594427
LeftFoot  3.57119 -0.0294135 0.973471
LeftToes  -15.1438 1.31424e-006 1.14295e-007
